<svg width="547" height="337" viewBox="0 0 547 337" fill="none" xmlns="http://www.w3.org/2000/svg">
<path opacity="0.3" d="M110.045 17.0831C53.2607 30.6698 8.4018 62.3164 1.20966 120.466C-4.84512 169.452 9.13774 252.715 105.496 261.578C300.286 279.487 507.804 297.429 535.87 212.994C554.904 155.748 561.176 53.32 456.054 21.841C384.751 0.46402 231.76 -12.017 110.045 17.0831Z" fill="#E6E6E6"/>
<path opacity="0.45" d="M278.877 337C424.459 337 542.477 326.874 542.477 314.383C542.477 301.892 424.459 291.767 278.877 291.767C133.295 291.767 15.2767 301.892 15.2767 314.383C15.2767 326.874 133.295 337 278.877 337Z" fill="#E6E6E6"/>
<path d="M154.469 181.9L158.852 170.792L168.536 146.216L178.371 121.203C180.913 114.787 183.489 108.655 186.617 102.49C187.543 100.423 188.759 98.4993 190.229 96.7773C190.968 95.9169 191.881 95.2239 192.908 94.7444C193.934 94.2649 195.051 94.0099 196.184 93.9963C196.473 93.978 196.761 94.0544 197.003 94.2141C197.189 94.3818 197.328 94.5956 197.405 94.834C198.371 97.4904 198.447 100.39 197.622 103.093C197.026 105.13 196.288 107.123 195.414 109.057C194.819 110.579 194.464 112.184 194.361 113.815C194.361 114.016 194.277 114.385 194.244 114.619L193.391 120.332L190.045 142.463L186.249 167.995C185.457 173.322 184.665 178.639 183.874 183.944C183.874 184.178 185.546 175.383 183.74 184.932C181.933 194.481 165.224 211.335 154.469 181.9Z" fill="#FFD6CB"/>
<path d="M248.034 243.887C248.034 243.887 262.702 257.725 243.702 257.172C224.701 256.619 231.693 241.809 248.034 243.887Z" fill="#005BA8"/>
<path d="M138.529 88.2156C138.529 88.2156 166.963 109.509 153.583 117.718C140.202 125.927 129.849 86.2388 129.849 86.2388L138.529 88.2156Z" fill="#24285B"/>
<path d="M138.396 70.0729C138.396 70.0729 140.537 79.086 139.885 85.4019C139.822 86.0127 139.639 86.6051 139.347 87.1446C139.054 87.6841 138.657 88.1601 138.18 88.545C137.702 88.9299 137.153 89.216 136.564 89.3868C135.976 89.5576 135.359 89.6096 134.75 89.54C132.777 89.4452 130.873 88.7834 129.265 87.6337C127.657 86.484 126.414 84.8949 125.684 83.0565L121.77 75.4338C121.156 73.8259 121.051 72.0675 121.47 70.3978C121.889 68.7281 122.812 67.2282 124.112 66.1024C128.728 61.6293 137.376 64.4941 138.396 70.0729Z" fill="#FFD6CB"/>
<path d="M122.539 80.1577L125.383 110.414L141.925 107.65L133.21 86.7417L122.539 80.1577Z" fill="#FFD6CB"/>
<path d="M129.816 79.3544C129.816 79.3544 129.23 75.8362 126.621 76.4896C124.012 77.143 124.831 82.2527 128.494 82.2024L129.816 79.3544Z" fill="#FFD6CB"/>
<path d="M139.416 75.8193L142.494 78.9857C142.668 79.166 142.793 79.3873 142.859 79.6292C142.925 79.871 142.929 80.1257 142.871 80.3695C142.813 80.6133 142.694 80.8385 142.525 81.0241C142.357 81.2098 142.145 81.3499 141.908 81.4316L138.563 82.6043L139.416 75.8193Z" fill="#FFD6CB"/>
<path d="M193.341 219.125C193.341 219.125 249.924 204.751 257.3 229.796C264.677 254.842 178.187 252.38 178.187 252.38L158.501 236.782L193.341 219.125Z" fill="#24285B"/>
<path d="M135.001 106.142C135.001 106.142 167.934 109.492 190.882 135.778C204.513 151.375 199.362 164.375 192.922 172.367C190.221 175.788 188.413 179.83 187.663 184.127C186.912 188.424 187.243 192.84 188.624 196.977L195.448 218.27C195.448 218.27 159.019 241.724 136.004 239.312C112.989 236.9 40.5661 109.76 135.001 106.142Z" fill="#005BA8"/>
<path opacity="0.08" d="M90.1413 132.847C90.1413 132.847 86.0602 145.361 88.2847 157.457C90.5093 169.553 101.9 249.884 177.417 228.189L195.448 218.137L176.313 202.004L139.7 163.639L123.677 132.83L90.1413 132.847Z" fill="black"/>
<path d="M116 187.126C99.8093 138.006 27.5367 146.048 21.3481 197.413C14.9755 250.436 22.2011 302.304 107.42 311.803C242.899 326.88 264.275 286.857 245.157 254.557C226.04 222.257 130.919 239.228 116.719 189.421C116.502 188.6 116.268 187.863 116 187.126Z" fill="#E6E6E6"/>
<path d="M227.779 214.803C227.779 214.803 246.679 219.393 248.034 207.348L227.779 205.153V214.803Z" fill="#FFD6CB"/>
<path d="M112.922 134.22C112.722 122.845 125.433 115.524 134.9 121.789C141.39 126.078 147.779 134.907 151.626 152.263C159.153 186.171 177.886 200.847 227.779 205.153V214.802C227.779 214.802 114.946 243.534 112.922 134.22Z" fill="#FFD6CB"/>
<path d="M136.522 72.2677C137.611 71.8319 138.567 71.117 139.293 70.1947C140.02 69.2723 140.491 68.175 140.661 67.0126C140.83 65.8502 140.691 64.6636 140.259 63.5718C139.826 62.4799 139.114 61.5212 138.195 60.7918C137.174 59.9984 136.048 59.35 134.85 58.8652C126.972 55.5146 108.088 57.8768 109.343 75.8193C110.597 93.7619 80.6912 134.556 107.67 145.629C134.649 156.703 157.145 142.078 157.145 128.876C157.145 115.675 131.521 112.576 129.849 101.083C129.163 96.3921 128.511 91.4332 127.959 87.1947C127.581 84.1134 128.211 80.9925 129.755 78.3008C131.3 75.6091 133.674 73.4921 136.522 72.2677Z" fill="#24285B"/>
<path opacity="0.45" d="M70.8397 242.948C61.3059 234.236 46.3697 243.785 50.4843 256.032C56.3216 273.355 69.7358 290.342 99.2068 295.368C165.425 306.66 158.969 282.116 154.687 271.411C151.124 262.666 107.336 276.303 70.8397 242.948Z" fill="white"/>
<path opacity="0.43" d="M214.65 80.2541C214.77 83.8761 213.853 87.4569 212.007 90.574C211.882 90.773 211.696 90.9261 211.477 91.0104C211.257 91.0947 211.017 91.1055 210.791 91.0414C210.565 90.9773 210.366 90.8416 210.223 90.6547C210.081 90.4677 210.002 90.2396 210 90.0044V80.3378C209.996 79.9673 210.081 79.6012 210.248 79.2703C210.414 78.9395 210.658 78.6537 210.958 78.4369C211.258 78.2201 211.606 78.0787 211.972 78.0247C212.338 77.9707 212.711 78.0056 213.061 78.1264C213.515 78.27 213.912 78.5525 214.197 78.9342C214.482 79.3159 214.641 79.7775 214.65 80.2541Z" fill="white"/>
<path d="M376.539 193.359C368.795 202.539 358.827 210.246 347.202 213.211C345.581 213.393 344.082 214.161 342.987 215.372C342.605 216.18 342.418 217.066 342.441 217.96C342.465 218.853 342.697 219.729 343.121 220.515C346.048 227.624 351.252 233.555 357.913 237.376C364.575 241.198 372.316 242.692 379.918 241.624C386.139 240.431 392.052 237.98 397.296 234.421C402.29 231.453 406.554 227.399 409.774 222.559C413.52 216.444 414.574 209.073 414.975 201.92C415.344 195.46 415.26 188.984 414.725 182.536C414.122 175.433 408.971 158.026 398.133 161.478C393.667 162.885 390.706 172.367 388.482 176.137C384.998 182.208 381.003 187.969 376.539 193.359Z" fill="#005BA8"/>
<path opacity="0.08" d="M376.539 193.359C368.795 202.539 358.827 210.246 347.202 213.211C345.581 213.393 344.082 214.161 342.987 215.372C342.605 216.18 342.418 217.066 342.441 217.96C342.465 218.853 342.697 219.729 343.121 220.515C346.048 227.624 351.252 233.555 357.913 237.376C364.575 241.198 372.316 242.692 379.918 241.624C386.139 240.431 392.052 237.98 397.296 234.421C402.29 231.453 406.554 227.399 409.774 222.559C413.52 216.444 414.574 209.073 414.975 201.92C415.344 195.46 415.26 188.984 414.725 182.536C414.122 175.433 408.971 158.026 398.133 161.478C393.667 162.885 390.706 172.367 388.482 176.137C384.998 182.208 381.003 187.969 376.539 193.359Z" fill="black"/>
<path d="M363.66 204.382C365.145 204.817 366.738 204.68 368.126 203.997C369.508 203.453 370.72 202.551 371.638 201.383C372.095 200.798 372.43 200.128 372.626 199.412C372.821 198.696 372.872 197.948 372.776 197.212C372.753 196.88 372.657 196.558 372.495 196.269C372.333 195.979 372.109 195.729 371.839 195.536C371.404 195.285 370.852 195.268 370.417 195C370.002 194.633 369.662 194.19 369.414 193.694C369.016 193.183 368.509 192.767 367.93 192.477C367.352 192.187 366.716 192.031 366.069 192.018C364.761 192.002 363.467 192.288 362.289 192.856C361.433 193.143 360.652 193.617 360.002 194.242C359.351 194.868 358.847 195.63 358.525 196.475C358.365 197.435 358.487 198.421 358.876 199.313C359.265 200.205 359.904 200.965 360.716 201.5C362.378 202.549 364.232 203.255 366.169 203.578" fill="#24285B"/>
<path d="M319.588 132.578H303.665C303.395 132.578 303.127 132.632 302.879 132.739C302.631 132.845 302.407 133.001 302.22 133.197C302.034 133.393 301.89 133.625 301.796 133.878C301.702 134.132 301.661 134.402 301.674 134.672L302.979 161.008C303.034 161.916 303.434 162.769 304.096 163.392C304.758 164.015 305.633 164.36 306.541 164.359H316.962C317.884 164.359 318.77 164.002 319.435 163.361C320.099 162.721 320.49 161.847 320.524 160.924L321.578 134.605C321.58 134.341 321.53 134.079 321.432 133.835C321.333 133.59 321.187 133.367 321.002 133.179C320.817 132.991 320.597 132.841 320.354 132.738C320.112 132.635 319.851 132.58 319.588 132.578Z" fill="#005BA8"/>
<path d="M208.916 72.9189H192.993C192.723 72.9186 192.456 72.9733 192.207 73.0797C191.959 73.1861 191.735 73.3421 191.549 73.538C191.363 73.7339 191.218 73.9657 191.124 74.2193C191.03 74.4729 190.989 74.7429 191.003 75.0131L192.307 101.349C192.363 102.257 192.762 103.11 193.424 103.733C194.087 104.355 194.961 104.701 195.87 104.7H206.29C207.212 104.7 208.099 104.343 208.763 103.702C209.427 103.062 209.818 102.188 209.853 101.265L210.906 74.9461C210.909 74.6821 210.859 74.4202 210.76 74.1755C210.661 73.9307 210.515 73.7078 210.33 73.5196C210.146 73.3314 209.925 73.1814 209.683 73.0784C209.44 72.9753 209.18 72.9211 208.916 72.9189Z" fill="#005BA8"/>
<path d="M315.038 157.339L313.867 157.255L315.941 127.2C315.947 127.12 315.97 127.041 316.007 126.969C316.045 126.897 316.096 126.833 316.159 126.782C316.295 126.686 316.462 126.644 316.627 126.664L326.278 128.34L326.094 129.496L317.062 127.971L315.038 157.339Z" fill="#24285B"/>
<path d="M204.366 97.68L203.195 97.5963L205.269 67.5413C205.276 67.4604 205.298 67.3816 205.335 67.3097C205.373 67.2377 205.424 67.174 205.487 67.1224C205.623 67.0263 205.79 66.9845 205.955 67.0052L215.606 68.6805L215.422 69.8364L206.39 68.3119L204.366 97.68Z" fill="#24285B"/>
<path opacity="0.44" d="M319.036 142.195H304.35L305.003 160.121C305.024 160.697 305.268 161.242 305.683 161.642C306.098 162.042 306.651 162.265 307.227 162.265H316.042C316.615 162.266 317.166 162.045 317.58 161.648C317.995 161.252 318.24 160.711 318.266 160.137L319.036 142.195Z" fill="white"/>
<path opacity="0.44" d="M208.364 82.5361H193.678L194.331 100.462C194.352 101.038 194.596 101.584 195.011 101.984C195.426 102.384 195.979 102.607 196.555 102.606H205.37C205.943 102.607 206.494 102.386 206.908 101.99C207.323 101.593 207.568 101.052 207.594 100.479L208.364 82.5361Z" fill="white"/>
<path d="M412.801 67.9791C412.801 67.9791 412.55 78.5671 414.758 85.4693C415.208 86.7975 416.163 87.8943 417.416 88.5216C418.668 89.1489 420.117 89.2561 421.448 88.8199C423.636 88.2493 425.612 87.0566 427.137 85.3859C428.663 83.7152 429.673 81.6378 430.045 79.4047L432.621 69.9727C432.939 68.0284 432.646 66.0333 431.783 64.2628C430.92 62.4924 429.53 61.0338 427.804 60.0884C421.616 56.2519 412.634 61.4789 412.801 67.9791Z" fill="#FFD6CB"/>
<path d="M432.186 71.7139L439.796 105.605L420.846 108.47L422.92 82.6536L432.186 71.7139Z" fill="#FFD6CB"/>
<path d="M415.393 68.2131C418.663 68.1343 421.912 67.6789 425.078 66.8561C424.225 68.3511 423.829 70.064 423.939 71.7824C424.049 73.5007 424.66 75.1489 425.697 76.5226C426.668 77.8801 428.081 78.8555 429.693 79.2806C431.306 79.7057 433.015 79.5539 434.528 78.8513L433.508 65.2645C433.425 63.3173 432.818 61.4287 431.753 59.798C430.687 58.1673 429.201 56.8551 427.453 56.0001C425.932 55.2632 424.368 54.6198 422.77 54.0735C418.772 52.75 413.219 55.7488 409.539 53.3028C409.169 53.0649 408.744 52.9266 408.305 52.9012C407.866 52.8758 407.428 52.9642 407.033 53.1579C406.638 53.3515 406.299 53.6439 406.05 54.0067C405.8 54.3696 405.648 54.7907 405.609 55.2294C405.257 59.401 406.412 65.8676 412.132 67.7775C413.188 68.0979 414.29 68.245 415.393 68.2131Z" fill="#24285B"/>
<path d="M424.593 76.3544C424.593 76.3544 424.409 72.2667 427.486 72.4007C430.564 72.5347 430.831 78.3983 426.734 79.2192L424.593 76.3544Z" fill="#FFD6CB"/>
<path d="M412.985 74.6797L410.375 78.8847C410.215 79.1261 410.12 79.4051 410.099 79.6944C410.079 79.9837 410.133 80.2734 410.258 80.5351C410.383 80.7968 410.573 81.0216 410.811 81.1875C411.048 81.3534 411.325 81.4547 411.613 81.4815L415.694 81.9841L412.985 74.6797Z" fill="#FFD6CB"/>
<path opacity="0.31" d="M422.234 88.2834C424.569 87.5381 426.634 86.1225 428.172 84.2124C428.172 84.2124 428.306 90.5618 421.749 97.2631L422.234 88.2834Z" fill="#CE8172"/>
<path d="M448.996 239.581L397.781 236.231C397.781 236.231 397.045 231.205 395.924 223.029C395.121 217.149 394.101 209.627 393.014 201.418C391.224 187.797 389.251 171.999 387.678 157.491C383.815 122.025 420.846 108.438 420.846 108.438L439.796 105.573C525.901 118.976 448.996 239.581 448.996 239.581Z" fill="#005BA8"/>
<path opacity="0.08" d="M444.631 187.797C420.763 216.897 413.504 234.554 413.504 234.554L395.925 223.062C395.122 217.182 394.102 209.659 393.015 201.45L407.031 180.727L448.009 134.656L449.297 134.957C449.297 134.957 468.499 158.696 444.631 187.797Z" fill="black"/>
<path d="M447.608 126.765C446.424 122.55 443.707 118.932 439.991 116.624C436.276 114.317 431.832 113.488 427.536 114.301C417.802 116.177 406.194 122.678 402.113 142.496C398.905 158.506 393.114 173.886 384.969 188.031C384.163 189.407 383.065 190.587 381.751 191.489C380.438 192.391 378.943 192.992 377.372 193.249C375.801 193.507 374.192 193.415 372.661 192.979C371.129 192.543 369.712 191.775 368.511 190.729L327.766 155.547L318.634 166.286L366.269 216.126C369.412 219.417 373.594 221.517 378.106 222.069C382.618 222.622 387.183 221.594 391.024 219.159C414.925 203.997 459.734 169.201 447.608 126.765Z" fill="#005BA8"/>
<path opacity="0.46" d="M447.608 126.765C446.424 122.55 443.707 118.932 439.991 116.624C436.276 114.317 431.832 113.488 427.536 114.301C417.802 116.177 406.194 122.678 402.113 142.496C398.905 158.506 393.114 173.886 384.969 188.031C384.163 189.407 383.065 190.587 381.751 191.489C380.438 192.391 378.943 192.992 377.372 193.249C375.801 193.507 374.192 193.415 372.661 192.979C371.129 192.543 369.712 191.775 368.511 190.729L327.766 155.547L318.634 166.286L366.269 216.126C369.412 219.417 373.594 221.517 378.106 222.069C382.618 222.622 387.183 221.594 391.024 219.159C414.925 203.997 459.734 169.201 447.608 126.765Z" fill="white"/>
<path d="M327.75 155.513C327.75 155.513 315.256 142.312 308.766 151.375C302.276 160.438 318.618 166.252 318.618 166.252L327.75 155.513Z" fill="#FFD6CB"/>
<path d="M234.078 114.853C234.078 114.853 221.584 101.652 215.094 110.715C208.604 119.779 224.946 125.592 224.946 125.592L234.078 114.853Z" fill="#FFD6CB"/>
<path d="M331.663 243.887C331.663 243.887 316.995 257.725 336.012 257.172C355.029 256.619 348.021 241.809 331.663 243.887Z" fill="#005BA8"/>
<path d="M392.696 222.342C392.696 222.342 329.79 204.751 322.447 229.797C315.105 254.843 401.561 252.38 401.561 252.38L421.231 236.783L392.696 222.342Z" fill="#24285B"/>
<path d="M441.72 187.126C457.911 138.006 530.2 146.048 536.372 197.413C542.744 250.436 535.519 302.304 450.3 311.803C314.82 326.88 293.445 286.857 312.562 254.557C331.68 222.257 426.8 239.228 441.017 189.421C441.235 188.6 441.469 187.863 441.72 187.126Z" fill="#E6E6E6"/>
<path opacity="0.45" d="M486.914 242.948C496.447 234.236 511.384 243.785 507.269 256.032C501.448 273.355 488.017 290.342 458.546 295.368C392.345 306.66 398.802 282.116 403.067 271.411C406.546 262.666 450.401 276.303 486.914 242.948Z" fill="white"/>
<path opacity="0.58" d="M66.6753 293.575C66.6753 293.575 50.2839 289.085 46.7213 273.806C46.7213 273.806 72.1112 268.68 72.8304 294.932L66.6753 293.575Z" fill="#005BA8"/>
<path opacity="0.73" d="M68.6821 291.951C68.6821 291.951 57.2248 273.807 67.3105 256.87C67.3105 256.87 86.6122 269.15 78.0319 292.052L68.6821 291.951Z" fill="#005BA8"/>
<path d="M71.626 291.968C71.626 291.968 77.6808 272.819 95.9288 269.184C95.9288 269.184 99.274 281.615 84.0868 292.018L71.626 291.968Z" fill="#005BA8"/>
<path d="M59.7508 291.531L63.0625 314.299L83.9866 314.382L87.0809 291.649L59.7508 291.531Z" fill="#24285B"/>
</svg>
