<svg width="950" height="768" viewBox="0 0 950 768" fill="none" xmlns="http://www.w3.org/2000/svg">
<g clip-path="url(#clip0_1025_2899)">
<path d="M323.796 77C323.796 49.2477 274.526 11 247.85 11C221.173 11 172.62 24.7114 163 77C163 104.752 181.112 158 247.849 158C274.526 158 327.704 131.607 323.796 77Z" fill="url(#paint0_linear_1025_2899)"/>
<path d="M-48.5363 170.926C-48.5363 126.397 14.6309 64.2799 51.359 64.2799C88.0871 64.2799 132.256 62.6019 145.5 146.5C126.5 228 103 313.5 22.5 327.5C-14.2281 327.5 -53.9168 258.544 -48.5363 170.926Z" fill="url(#paint1_linear_1025_2899)"/>
<path d="M180.786 169.498C149.579 174.524 154.601 140.409 119.807 129.996C85.0131 119.583 4.57764e-05 164.829 4.57764e-05 152.619C4.57764e-05 140.41 0.000961304 6.10352e-05 0.000961304 6.10352e-05L119.807 30.1655C230.646 84.0321 211.994 164.472 180.786 169.498Z" fill="#8BC54B"/>
<path d="M180.423 169.498C149.278 174.524 154.29 140.409 119.566 129.996C84.8422 119.583 0.000228882 164.829 0.000228882 152.619C0.000228882 140.41 0.00114441 0 0.00114441 0C45.3039 22.061 96.8328 32.3889 130.483 62.3333C178.996 105.504 198.812 166.53 180.423 169.498Z" fill="#70A23D"/>
<path d="M380 -1.52588e-05C356.242 30.1969 326.568 68.8792 273.97 81.0148C220.116 93.4403 150.861 71.7763 95.3558 83.5021C57.7447 91.4477 26.4631 127.707 0 155.634V-1.52588e-05L380 -1.52588e-05Z" fill="#005BA8"/>
<path d="M3.05176e-05 0.000656128L348.8 0.000656128C328.305 22.8371 302.11 46.5049 261.904 55.114C235.938 60.6742 206.225 58.5403 176.343 56.3942C146.981 54.2854 117.454 52.1649 91.1564 57.3207C58.2076 63.7805 30.3401 91.335 6.44232 114.964L6.43683 114.97C4.25851 117.124 2.11319 119.245 3.05176e-05 121.314V0.000656128Z" fill="#0269BF"/>
<path d="M813 668.384C813 713.883 754.774 735 709.231 735C663.688 735 639 713.883 639 668.384C639 622.884 675.92 586 721.463 586C767.005 586 813 622.884 813 668.384Z" fill="url(#paint2_linear_1025_2899)"/>
<path d="M687.415 756.117C717.18 766.05 753.877 674.456 811.776 767.277L950 767.278C950 756.195 950 641.812 950 641.812L795.466 644.67C676.814 663.04 657.65 746.183 687.415 756.117Z" fill="#70A23D"/>
<path d="M675.222 730.946C675.222 730.946 753.47 616.641 857.443 767.278H950C950 756.195 950 641.812 950 641.812L795.466 644.67C712.59 657.501 678.252 701.933 675.222 730.946Z" fill="#8BC54B"/>
<path d="M740.384 768C862.78 699.489 709.544 617.954 790.981 558.61C822.785 532.934 908.076 564.399 950 586.597V768H740.384Z" fill="#005BA8"/>
<path d="M775.562 768C877.417 710.949 749.897 643.053 817.667 593.635C844.134 572.254 915.112 598.456 950 616.941V768H775.562Z" fill="#0269BF"/>
<ellipse cx="901" cy="145.104" rx="2" ry="1.94185" transform="rotate(-180 901 145.104)" fill="white" fill-opacity="0.5"/>
<ellipse cx="923" cy="145.104" rx="2" ry="1.94185" transform="rotate(-180 923 145.104)" fill="white" fill-opacity="0.5"/>
<ellipse cx="945" cy="145.104" rx="2" ry="1.94185" transform="rotate(-180 945 145.104)" fill="white" fill-opacity="0.5"/>
<ellipse cx="945" cy="123.743" rx="2" ry="1.94185" transform="rotate(-180 945 123.743)" fill="white" fill-opacity="0.5"/>
<ellipse cx="945" cy="102.383" rx="2" ry="1.94185" transform="rotate(-180 945 102.383)" fill="white" fill-opacity="0.5"/>
<ellipse cx="945" cy="81.0225" rx="2" ry="1.94185" transform="rotate(-180 945 81.0225)" fill="white" fill-opacity="0.5"/>
<ellipse cx="945" cy="59.6622" rx="2" ry="1.94185" transform="rotate(-180 945 59.6622)" fill="white" fill-opacity="0.5"/>
<ellipse cx="945" cy="38.3018" rx="2" ry="1.94185" transform="rotate(-180 945 38.3018)" fill="white" fill-opacity="0.5"/>
<ellipse cx="945" cy="16.9419" rx="2" ry="1.94185" transform="rotate(-180 945 16.9419)" fill="white" fill-opacity="0.5"/>
<ellipse cx="923" cy="123.743" rx="2" ry="1.94185" transform="rotate(-180 923 123.743)" fill="white" fill-opacity="0.5"/>
<ellipse cx="923" cy="102.383" rx="2" ry="1.94185" transform="rotate(-180 923 102.383)" fill="white" fill-opacity="0.5"/>
<ellipse cx="923" cy="81.0225" rx="2" ry="1.94185" transform="rotate(-180 923 81.0225)" fill="white" fill-opacity="0.5"/>
<ellipse cx="923" cy="59.6622" rx="2" ry="1.94185" transform="rotate(-180 923 59.6622)" fill="white" fill-opacity="0.5"/>
<ellipse cx="923" cy="38.3018" rx="2" ry="1.94185" transform="rotate(-180 923 38.3018)" fill="white" fill-opacity="0.5"/>
<ellipse cx="923" cy="16.9419" rx="2" ry="1.94185" transform="rotate(-180 923 16.9419)" fill="white" fill-opacity="0.5"/>
<ellipse cx="901" cy="123.743" rx="2" ry="1.94185" transform="rotate(-180 901 123.743)" fill="white" fill-opacity="0.5"/>
<ellipse cx="901" cy="102.383" rx="2" ry="1.94185" transform="rotate(-180 901 102.383)" fill="white" fill-opacity="0.5"/>
<ellipse cx="901" cy="81.0225" rx="2" ry="1.94185" transform="rotate(-180 901 81.0225)" fill="white" fill-opacity="0.5"/>
<ellipse cx="901" cy="59.6622" rx="2" ry="1.94185" transform="rotate(-180 901 59.6622)" fill="white" fill-opacity="0.5"/>
<ellipse cx="901" cy="38.3018" rx="2" ry="1.94185" transform="rotate(-180 901 38.3018)" fill="white" fill-opacity="0.5"/>
<ellipse cx="901" cy="16.9419" rx="2" ry="1.94185" transform="rotate(-180 901 16.9419)" fill="white" fill-opacity="0.5"/>
<ellipse cx="879" cy="16.9419" rx="2" ry="1.94185" transform="rotate(-180 879 16.9419)" fill="white" fill-opacity="0.5"/>
<ellipse cx="857" cy="16.9419" rx="2" ry="1.94185" transform="rotate(-180 857 16.9419)" fill="white" fill-opacity="0.5"/>
<ellipse cx="835" cy="16.9419" rx="2" ry="1.94185" transform="rotate(-180 835 16.9419)" fill="white" fill-opacity="0.5"/>
<ellipse cx="813" cy="16.9419" rx="2" ry="1.94185" transform="rotate(-180 813 16.9419)" fill="white" fill-opacity="0.5"/>
<ellipse cx="791" cy="16.9419" rx="2" ry="1.94185" transform="rotate(-180 791 16.9419)" fill="white" fill-opacity="0.5"/>
<ellipse cx="879" cy="145.104" rx="2" ry="1.94185" transform="rotate(-180 879 145.104)" fill="white" fill-opacity="0.5"/>
<ellipse cx="879" cy="123.743" rx="2" ry="1.94185" transform="rotate(-180 879 123.743)" fill="white" fill-opacity="0.5"/>
<ellipse cx="879" cy="102.383" rx="2" ry="1.94185" transform="rotate(-180 879 102.383)" fill="white" fill-opacity="0.5"/>
<ellipse cx="879" cy="81.0225" rx="2" ry="1.94185" transform="rotate(-180 879 81.0225)" fill="white" fill-opacity="0.5"/>
<ellipse cx="879" cy="59.6622" rx="2" ry="1.94185" transform="rotate(-180 879 59.6622)" fill="white" fill-opacity="0.5"/>
<ellipse cx="879" cy="38.3018" rx="2" ry="1.94185" transform="rotate(-180 879 38.3018)" fill="white" fill-opacity="0.5"/>
<ellipse cx="857" cy="145.104" rx="2" ry="1.94185" transform="rotate(-180 857 145.104)" fill="white" fill-opacity="0.5"/>
<ellipse cx="857" cy="123.743" rx="2" ry="1.94185" transform="rotate(-180 857 123.743)" fill="white" fill-opacity="0.5"/>
<ellipse cx="857" cy="102.383" rx="2" ry="1.94185" transform="rotate(-180 857 102.383)" fill="white" fill-opacity="0.5"/>
<ellipse cx="857" cy="81.0225" rx="2" ry="1.94185" transform="rotate(-180 857 81.0225)" fill="white" fill-opacity="0.5"/>
<ellipse cx="857" cy="59.6622" rx="2" ry="1.94185" transform="rotate(-180 857 59.6622)" fill="white" fill-opacity="0.5"/>
<ellipse cx="857" cy="38.3018" rx="2" ry="1.94185" transform="rotate(-180 857 38.3018)" fill="white" fill-opacity="0.5"/>
<ellipse cx="835" cy="145.104" rx="2" ry="1.94185" transform="rotate(-180 835 145.104)" fill="white" fill-opacity="0.5"/>
<ellipse cx="813" cy="145.104" rx="2" ry="1.94185" transform="rotate(-180 813 145.104)" fill="white" fill-opacity="0.5"/>
<ellipse cx="791" cy="145.104" rx="2" ry="1.94185" transform="rotate(-180 791 145.104)" fill="white" fill-opacity="0.5"/>
<ellipse cx="835" cy="123.743" rx="2" ry="1.94185" transform="rotate(-180 835 123.743)" fill="white" fill-opacity="0.5"/>
<ellipse cx="813" cy="123.743" rx="2" ry="1.94185" transform="rotate(-180 813 123.743)" fill="white" fill-opacity="0.5"/>
<ellipse cx="791" cy="123.743" rx="2" ry="1.94185" transform="rotate(-180 791 123.743)" fill="white" fill-opacity="0.5"/>
<ellipse cx="835" cy="102.383" rx="2" ry="1.94185" transform="rotate(-180 835 102.383)" fill="white" fill-opacity="0.5"/>
<ellipse cx="813" cy="102.383" rx="2" ry="1.94185" transform="rotate(-180 813 102.383)" fill="white" fill-opacity="0.5"/>
<ellipse cx="791" cy="102.383" rx="2" ry="1.94185" transform="rotate(-180 791 102.383)" fill="white" fill-opacity="0.5"/>
<ellipse cx="835" cy="81.0225" rx="2" ry="1.94185" transform="rotate(-180 835 81.0225)" fill="white" fill-opacity="0.5"/>
<ellipse cx="835" cy="59.6622" rx="2" ry="1.94185" transform="rotate(-180 835 59.6622)" fill="white" fill-opacity="0.5"/>
<ellipse cx="835" cy="38.3018" rx="2" ry="1.94185" transform="rotate(-180 835 38.3018)" fill="white" fill-opacity="0.5"/>
<ellipse cx="813" cy="81.0225" rx="2" ry="1.94185" transform="rotate(-180 813 81.0225)" fill="white" fill-opacity="0.5"/>
<ellipse cx="813" cy="59.6622" rx="2" ry="1.94185" transform="rotate(-180 813 59.6622)" fill="white" fill-opacity="0.5"/>
<ellipse cx="813" cy="38.3018" rx="2" ry="1.94185" transform="rotate(-180 813 38.3018)" fill="white" fill-opacity="0.5"/>
<ellipse cx="791" cy="81.0225" rx="2" ry="1.94185" transform="rotate(-180 791 81.0225)" fill="white" fill-opacity="0.5"/>
<ellipse cx="791" cy="59.6622" rx="2" ry="1.94185" transform="rotate(-180 791 59.6622)" fill="white" fill-opacity="0.5"/>
<ellipse cx="791" cy="38.3018" rx="2" ry="1.94185" transform="rotate(-180 791 38.3018)" fill="white" fill-opacity="0.5"/>
<ellipse cx="256" cy="763.814" rx="2" ry="1.94185" transform="rotate(-180 256 763.814)" fill="white" fill-opacity="0.5"/>
<ellipse cx="256" cy="742.454" rx="2" ry="1.94185" transform="rotate(-180 256 742.454)" fill="white" fill-opacity="0.5"/>
<ellipse cx="256" cy="721.093" rx="2" ry="1.94185" transform="rotate(-180 256 721.093)" fill="white" fill-opacity="0.5"/>
<ellipse cx="256" cy="699.733" rx="2" ry="1.94185" transform="rotate(-180 256 699.733)" fill="white" fill-opacity="0.5"/>
<ellipse cx="256" cy="678.373" rx="2" ry="1.94185" transform="rotate(-180 256 678.373)" fill="white" fill-opacity="0.5"/>
<ellipse cx="256" cy="657.013" rx="2" ry="1.94185" transform="rotate(-180 256 657.013)" fill="white" fill-opacity="0.5"/>
<ellipse cx="234" cy="763.814" rx="2" ry="1.94185" transform="rotate(-180 234 763.814)" fill="white" fill-opacity="0.5"/>
<ellipse cx="234" cy="742.454" rx="2" ry="1.94185" transform="rotate(-180 234 742.454)" fill="white" fill-opacity="0.5"/>
<ellipse cx="234" cy="721.093" rx="2" ry="1.94185" transform="rotate(-180 234 721.093)" fill="white" fill-opacity="0.5"/>
<ellipse cx="234" cy="699.733" rx="2" ry="1.94185" transform="rotate(-180 234 699.733)" fill="white" fill-opacity="0.5"/>
<ellipse cx="234" cy="678.373" rx="2" ry="1.94185" transform="rotate(-180 234 678.373)" fill="white" fill-opacity="0.5"/>
<ellipse cx="234" cy="657.013" rx="2" ry="1.94185" transform="rotate(-180 234 657.013)" fill="white" fill-opacity="0.5"/>
<ellipse cx="212" cy="763.814" rx="2" ry="1.94185" transform="rotate(-180 212 763.814)" fill="white" fill-opacity="0.5"/>
<ellipse cx="212" cy="742.454" rx="2" ry="1.94185" transform="rotate(-180 212 742.454)" fill="white" fill-opacity="0.5"/>
<ellipse cx="212" cy="721.093" rx="2" ry="1.94185" transform="rotate(-180 212 721.093)" fill="white" fill-opacity="0.5"/>
<ellipse cx="212" cy="699.733" rx="2" ry="1.94185" transform="rotate(-180 212 699.733)" fill="white" fill-opacity="0.5"/>
<ellipse cx="212" cy="678.373" rx="2" ry="1.94185" transform="rotate(-180 212 678.373)" fill="white" fill-opacity="0.5"/>
<ellipse cx="212" cy="657.013" rx="2" ry="1.94185" transform="rotate(-180 212 657.013)" fill="white" fill-opacity="0.5"/>
<ellipse cx="190" cy="657.013" rx="2" ry="1.94185" transform="rotate(-180 190 657.013)" fill="white" fill-opacity="0.5"/>
<ellipse cx="168" cy="657.013" rx="2" ry="1.94185" transform="rotate(-180 168 657.013)" fill="white" fill-opacity="0.5"/>
<ellipse cx="146" cy="657.013" rx="2" ry="1.94185" transform="rotate(-180 146 657.013)" fill="white" fill-opacity="0.5"/>
<ellipse cx="124" cy="657.013" rx="2" ry="1.94185" transform="rotate(-180 124 657.013)" fill="white" fill-opacity="0.5"/>
<ellipse cx="102" cy="657.013" rx="2" ry="1.94185" transform="rotate(-180 102 657.013)" fill="white" fill-opacity="0.5"/>
<ellipse cx="190" cy="763.814" rx="2" ry="1.94185" transform="rotate(-180 190 763.814)" fill="white" fill-opacity="0.5"/>
<ellipse cx="190" cy="742.454" rx="2" ry="1.94185" transform="rotate(-180 190 742.454)" fill="white" fill-opacity="0.5"/>
<ellipse cx="190" cy="721.093" rx="2" ry="1.94185" transform="rotate(-180 190 721.093)" fill="white" fill-opacity="0.5"/>
<ellipse cx="190" cy="699.733" rx="2" ry="1.94185" transform="rotate(-180 190 699.733)" fill="white" fill-opacity="0.5"/>
<ellipse cx="190" cy="678.373" rx="2" ry="1.94185" transform="rotate(-180 190 678.373)" fill="white" fill-opacity="0.5"/>
<ellipse cx="168" cy="763.814" rx="2" ry="1.94185" transform="rotate(-180 168 763.814)" fill="white" fill-opacity="0.5"/>
<ellipse cx="168" cy="742.454" rx="2" ry="1.94185" transform="rotate(-180 168 742.454)" fill="white" fill-opacity="0.5"/>
<ellipse cx="168" cy="721.093" rx="2" ry="1.94185" transform="rotate(-180 168 721.093)" fill="white" fill-opacity="0.5"/>
<ellipse cx="168" cy="699.733" rx="2" ry="1.94185" transform="rotate(-180 168 699.733)" fill="white" fill-opacity="0.5"/>
<ellipse cx="168" cy="678.373" rx="2" ry="1.94185" transform="rotate(-180 168 678.373)" fill="white" fill-opacity="0.5"/>
<ellipse cx="146" cy="763.814" rx="2" ry="1.94185" transform="rotate(-180 146 763.814)" fill="white" fill-opacity="0.5"/>
<ellipse cx="124" cy="763.814" rx="2" ry="1.94185" transform="rotate(-180 124 763.814)" fill="white" fill-opacity="0.5"/>
<ellipse cx="102" cy="763.814" rx="2" ry="1.94185" transform="rotate(-180 102 763.814)" fill="white" fill-opacity="0.5"/>
<ellipse cx="146" cy="742.454" rx="2" ry="1.94185" transform="rotate(-180 146 742.454)" fill="white" fill-opacity="0.5"/>
<ellipse cx="124" cy="742.454" rx="2" ry="1.94185" transform="rotate(-180 124 742.454)" fill="white" fill-opacity="0.5"/>
<ellipse cx="102" cy="742.454" rx="2" ry="1.94185" transform="rotate(-180 102 742.454)" fill="white" fill-opacity="0.5"/>
<ellipse cx="146" cy="721.093" rx="2" ry="1.94185" transform="rotate(-180 146 721.093)" fill="white" fill-opacity="0.5"/>
<ellipse cx="146" cy="699.733" rx="2" ry="1.94185" transform="rotate(-180 146 699.733)" fill="white" fill-opacity="0.5"/>
<ellipse cx="146" cy="678.373" rx="2" ry="1.94185" transform="rotate(-180 146 678.373)" fill="white" fill-opacity="0.5"/>
<ellipse cx="124" cy="721.093" rx="2" ry="1.94185" transform="rotate(-180 124 721.093)" fill="white" fill-opacity="0.5"/>
<ellipse cx="124" cy="699.733" rx="2" ry="1.94185" transform="rotate(-180 124 699.733)" fill="white" fill-opacity="0.5"/>
<ellipse cx="124" cy="678.373" rx="2" ry="1.94185" transform="rotate(-180 124 678.373)" fill="white" fill-opacity="0.5"/>
<ellipse cx="102" cy="721.093" rx="2" ry="1.94185" transform="rotate(-180 102 721.093)" fill="white" fill-opacity="0.5"/>
<ellipse cx="102" cy="699.733" rx="2" ry="1.94185" transform="rotate(-180 102 699.733)" fill="white" fill-opacity="0.5"/>
<ellipse cx="102" cy="678.373" rx="2" ry="1.94185" transform="rotate(-180 102 678.373)" fill="white" fill-opacity="0.5"/>
<path d="M948 220.116L920 220.116L920 181.116L948 181.116" stroke="white" stroke-opacity="0.3" stroke-width="4"/>
<circle cx="173.5" cy="201.5" r="19.5" transform="rotate(-180 173.5 201.5)" fill="white" fill-opacity="0.4"/>
<path d="M60.5 673.116C50.5 673.116 52.2666 664.82 45.5 664.616C38.4036 664.402 37.0988 674.221 30 674.116C23.0669 674.014 21.9339 664.616 15 664.616C8.06613 664.616 9 673.116 8.74955e-08 673.116" stroke="white" stroke-opacity="0.3" stroke-width="4" stroke-linecap="round"/>
</g>
<defs>
<linearGradient id="paint0_linear_1025_2899" x1="271.5" y1="107" x2="179.5" y2="42.5" gradientUnits="userSpaceOnUse">
<stop stop-color="white" stop-opacity="0.3"/>
<stop offset="0.958608" stop-color="white" stop-opacity="0"/>
</linearGradient>
<linearGradient id="paint1_linear_1025_2899" x1="47.9997" y1="248" x2="86.4998" y2="134.5" gradientUnits="userSpaceOnUse">
<stop stop-color="white" stop-opacity="0.3"/>
<stop offset="1" stop-color="white" stop-opacity="0"/>
</linearGradient>
<linearGradient id="paint2_linear_1025_2899" x1="726" y1="586" x2="726" y2="735" gradientUnits="userSpaceOnUse">
<stop stop-color="white" stop-opacity="0.3"/>
<stop offset="1" stop-color="white" stop-opacity="0"/>
</linearGradient>
<clipPath id="clip0_1025_2899">
<rect width="950" height="768" fill="white"/>
</clipPath>
</defs>
</svg>
